<?xml version="1.0" encoding="UTF-8" standalone="no"?>
<svg
fill="currentColor"
     fill-rule="evenodd"
   width="20"
   height="20"
   viewBox="0 0 20 20"
   version="1.1"
   id="svg422"
   sodipodi:docname="close.svg"
   inkscape:version="1.2.1 (9c6d41e, 2022-07-14)"
   xmlns:inkscape="http://www.inkscape.org/namespaces/inkscape"
   xmlns:sodipodi="http://sodipodi.sourceforge.net/DTD/sodipodi-0.dtd"
   xmlns="http://www.w3.org/2000/svg"
   xmlns:svg="http://www.w3.org/2000/svg">
  <defs
     id="defs426" />
  <sodipodi:namedview
     id="namedview424"
     pagecolor="#ffffff"
     bordercolor="currentColor"
     borderopacity="0.25"
     inkscape:showpageshadow="2"
     inkscape:pageopacity="0.0"
     inkscape:pagecheckerboard="0"
     inkscape:deskcolor="#d1d1d1"
     showgrid="false"
     showguides="false"
     inkscape:zoom="11.8"
     inkscape:cx="10"
     inkscape:cy="10"
     inkscape:window-width="1728"
     inkscape:window-height="1052"
     inkscape:window-x="0"
     inkscape:window-y="65"
     inkscape:window-maximized="0"
     inkscape:current-layer="svg422" />
  <g
     id="g420"
     transform="scale(1.3333333)">
    <g
       id="g418">
      <g
         id="g416">
        <g
           id="g414">
          <path
             d="m 8.874,7.5 5.84,-5.84 c 0.381,-0.38 0.381,-0.995 0,-1.375 -0.379,-0.38 -0.993,-0.38 -1.373,0 L 7.5,6.125 1.66,0.286 c -0.38,-0.38 -0.995,-0.38 -1.375,0 -0.38,0.38 -0.38,0.994 0,1.374 l 5.84,5.84 -5.84,5.841 c -0.38,0.38 -0.38,0.994 0,1.374 C 0.475,14.905 0.723,15 0.972,15 1.221,15 1.47,14.905 1.659,14.715 l 5.84,-5.84 5.842,5.84 c 0.19,0.19 0.438,0.285 0.687,0.285 0.249,0 0.497,-0.095 0.687,-0.285 0.38,-0.38 0.38,-0.994 0,-1.374 l -5.84,-5.84 z"
             id="path412" />
        </g>
      </g>
    </g>
  </g>
</svg>
