<svg preserveAspectRatio="xMidYMid meet" fill="white" width="20" height="16" viewBox="0 0 20 16" xmlns="http://www.w3.org/2000/svg">
    <path d="M20 1.9a8.277 8.277 0 0 1-2.36.625C18.528 2 19.129 1.26 19.442.3c-.813.475-1.68.8-2.602.975C16.028.425 15.03 0 13.845 0c-1.133 0-2.1.394-2.9 1.181-.8.788-1.199 1.74-1.199 2.856 0 .3.034.609.102.925A11.557 11.557 0 0 1 5.133 3.72 11.589 11.589 0 0 1 1.396.737a3.91 3.91 0 0 0-.559 2.038c0 .692.165 1.333.495 1.925.33.592.775 1.07 1.333 1.437a4.113 4.113 0 0 1-1.853-.512v.05c0 .975.311 1.831.933 2.569a4.044 4.044 0 0 0 2.354 1.394 4.308 4.308 0 0 1-1.079.137c-.237 0-.495-.02-.774-.062a3.953 3.953 0 0 0 1.447 1.993c.702.521 1.497.79 2.386.807-1.49 1.15-3.186 1.725-5.09 1.725-.363 0-.693-.017-.989-.05C1.904 15.396 4.002 16 6.294 16c1.456 0 2.822-.227 4.1-.681 1.277-.454 2.368-1.063 3.273-1.825a12.271 12.271 0 0 0 2.342-2.631 11.653 11.653 0 0 0 1.465-3.107 11.316 11.316 0 0 0 .47-3.769A8.516 8.516 0 0 0 20 1.9z" />
</svg>
