<svg preserveAspectRatio="xMidYMid meet" fill="white" width="20" height="21" viewBox="0 0 20 21" xmlns="http://www.w3.org/2000/svg">
    <path d="M17.086 2.919A9.899 9.899 0 0 0 10.043 0C4.555 0 .086 4.469.081 9.957c0 1.756.46 3.469 1.33 4.976L0 20.096l5.278-1.383a9.93 9.93 0 0 0 4.76 1.21h.005c5.488 0 9.957-4.468 9.957-9.956a9.914 9.914 0 0 0-2.914-7.048zm-7.043 15.32a8.28 8.28 0 0 1-4.215-1.153l-.302-.177-3.134.823.838-3.053-.197-.31A8.225 8.225 0 0 1 1.77 9.961c0-4.565 3.713-8.278 8.283-8.278a8.22 8.22 0 0 1 5.851 2.426 8.226 8.226 0 0 1 2.421 5.857c-.01 4.56-3.722 8.272-8.282 8.272zm4.54-6.196c-.248-.124-1.473-.727-1.698-.809-.23-.08-.392-.124-.56.125-.167.249-.64.808-.79.976-.143.167-.291.187-.54.062-.249-.124-1.052-.387-2-1.234-.741-.66-1.239-1.474-1.383-1.723-.143-.249-.014-.383.11-.507.11-.11.25-.292.374-.435.124-.144.167-.25.248-.417.082-.167.044-.31-.019-.435-.062-.124-.56-1.35-.765-1.847-.201-.483-.407-.421-.56-.426-.144-.01-.311-.01-.478-.01a.917.917 0 0 0-.666.312c-.23.248-.87.851-.87 2.076s.89 2.407 1.014 2.574c.124.168 1.756 2.68 4.249 3.756.593.259 1.057.412 1.416.527.598.191 1.139.162 1.57.1.478-.072 1.473-.603 1.679-1.182.206-.579.206-1.081.143-1.182-.062-.114-.224-.177-.473-.3z" />
</svg>
