<svg preserveAspectRatio="xMidYMid meet" fill="white" fill-rule="nonzero" width="20" height="18" viewBox="0 0 20 18" xmlns="http://www.w3.org/2000/svg">
    <path d="M20 9.158c0-1.2-1-2.21-2.188-2.21-.562 0-1.125.252-1.5.63-1.5-1.073-3.562-1.767-5.875-1.894l1-4.737 3.25.695c.063.821.688 1.516 1.563 1.516s1.563-.695 1.563-1.58C17.813.696 17.125 0 16.25 0c-.625 0-1.125.379-1.375.884L11.25.126c-.125 0-.188 0-.313.063-.062.064-.124.127-.187.253L9.625 5.747c-2.313.064-4.438.758-5.938 1.895a2.171 2.171 0 0 0-1.5-.631C1 6.947 0 7.958 0 9.158c0 .884.5 1.642 1.313 2.02-.063.19-.063.443-.063.696C1.25 15.22 5.188 18 10 18c4.813 0 8.75-2.779 8.75-6.19 0-.252 0-.442-.063-.694.75-.253 1.313-1.074 1.313-1.958zM5 10.737c0-.884.688-1.58 1.563-1.58s1.562.696 1.562 1.58c0 .884-.688 1.579-1.563 1.579A1.556 1.556 0 0 1 5 10.736zm8.688 4.168c-1.063 1.074-3.126 1.137-3.688 1.137-.625 0-2.625-.063-3.688-1.137-.187-.19-.187-.442 0-.568.188-.19.438-.19.563 0 .688.695 2.125.947 3.125.947s2.438-.252 3.125-.947c.188-.19.438-.19.563 0 .187.126.187.442 0 .568zm-.25-2.59a1.556 1.556 0 0 1-1.563-1.578c0-.884.688-1.58 1.563-1.58.874 0 1.562.696 1.562 1.58 0 .884-.688 1.579-1.563 1.579z"/>
</svg>
