<svg width="220" height="32" viewBox="0 0 220 32" xmlns="http://www.w3.org/2000/svg">
    <path d="M125.57 0h-14.625c-2.811 0-5.202.981-7.183 2.933-1.971 1.952-2.962 4.32-2.962 7.094V28.853c0 .875.312 1.622.926 2.23.614.608 1.368.917 2.262.917a3.13 3.13 0 0 0 2.261-.917 3.028 3.028 0 0 0 .926-2.23v-8.832h13.063a3.13 3.13 0 0 0 2.284-.938c.624-.619.947-1.376.947-2.251 0-.853-.312-1.59-.947-2.208-.636-.619-1.39-.939-2.284-.939h-13.063V10.07c0-1.045.367-1.92 1.099-2.645.732-.715 1.626-1.077 2.681-1.077h14.614c.894 0 1.648-.31 2.283-.939a3.03 3.03 0 0 0 .948-2.25c0-.854-.312-1.59-.948-2.209A3.082 3.082 0 0 0 125.57 0zm30.453 0c-.883 0-1.637.31-2.25.917a3.028 3.028 0 0 0-.927 2.23v18.826c0 .992-.366 1.867-1.098 2.614-.733.746-1.626 1.13-2.682 1.13h-7.754c-1.055 0-1.949-.362-2.681-1.088-.733-.725-1.077-1.61-1.077-2.656V3.147c0-.875-.312-1.622-.948-2.23-.624-.608-1.368-.917-2.23-.917-.882 0-1.636.31-2.25.917a3.028 3.028 0 0 0-.926 2.23v18.826c0 2.774.99 5.142 2.962 7.094 1.97 1.952 4.361 2.933 7.161 2.933h7.754c2.8 0 5.19-.981 7.161-2.933 1.971-1.952 2.962-4.32 2.962-7.094V3.147c0-.875-.312-1.622-.926-2.23C157.66.31 156.917 0 156.024 0zm30.346 0h-14.624c-2.811 0-5.202.981-7.183 2.933-1.971 1.952-2.962 4.32-2.962 7.094V28.853c0 .875.312 1.622.926 2.23.614.608 1.368.917 2.262.917a3.13 3.13 0 0 0 2.261-.917 3.028 3.028 0 0 0 .926-2.23v-8.832h13.063a3.13 3.13 0 0 0 2.284-.938c.624-.619.947-1.376.947-2.251 0-.853-.312-1.59-.947-2.208-.636-.619-1.39-.939-2.284-.939h-13.063V10.07c0-1.045.367-1.92 1.099-2.645.732-.715 1.626-1.077 2.681-1.077h14.614c.894 0 1.648-.31 2.283-.939a3.03 3.03 0 0 0 .948-2.25c0-.854-.312-1.59-.948-2.209A3.082 3.082 0 0 0 186.37 0zM93.623 0c-.883 0-1.637.31-2.25.917a3.028 3.028 0 0 0-.927 2.23v18.826c0 .992-.366 1.867-1.098 2.614-.733.746-1.626 1.13-2.682 1.13h-7.754c-1.055 0-1.949-.362-2.681-1.088-.733-.725-1.077-1.61-1.077-2.656V3.147c0-.875-.312-1.622-.948-2.23C73.571.31 72.828 0 71.976 0c-.882 0-1.636.31-2.25.917a3.028 3.028 0 0 0-.926 2.23v18.826c0 2.774.99 5.142 2.962 7.094C73.732 31.019 76.123 32 78.923 32h7.754c2.8 0 5.19-.981 7.161-2.933 1.971-1.952 2.962-4.32 2.962-7.094V3.147c0-.875-.312-1.622-.926-2.23C95.26.31 94.517 0 93.624 0zm-68.8 0c-.883 0-1.637.31-2.25.917a3.028 3.028 0 0 0-.927 2.23v18.826c0 .992-.366 1.867-1.098 2.614-.733.746-1.626 1.13-2.682 1.13h-7.743c-1.055 0-1.95-.362-2.681-1.088-.733-.725-1.088-1.61-1.088-2.656V3.147c0-.875-.312-1.622-.948-2.23C4.771.31 4.028 0 3.176 0 2.284 0 1.54.31.927.917.302 1.525 0 2.272 0 3.147v18.826c0 2.774.99 5.142 2.962 7.094C4.932 31.019 7.323 32 10.123 32h7.754c2.8 0 5.19-.981 7.161-2.933C27.01 27.115 28 24.747 28 21.973V3.147c0-.875-.312-1.622-.926-2.23C26.46.31 25.717 0 24.824 0zm194.25.917C218.46.31 217.707 0 216.824 0s-1.637.31-2.25.917a3.028 3.028 0 0 0-.927 2.23v18.826c0 .992-.366 1.867-1.098 2.614-.733.746-1.626 1.13-2.682 1.13h-7.754c-1.055 0-1.949-.362-2.681-1.088-.733-.725-1.077-1.61-1.077-2.656V3.147c0-.875-.312-1.622-.948-2.23-.624-.608-1.368-.917-2.23-.917-.882 0-1.636.31-2.25.917a3.028 3.028 0 0 0-.926 2.23v18.826c0 2.774.99 5.142 2.962 7.094 1.97 1.952 4.361 2.933 7.161 2.933h7.754c2.8 0 5.19-.981 7.161-2.933 1.971-1.952 2.962-4.32 2.962-7.094V3.147c0-.875-.312-1.622-.926-2.23zM64.764 10.4c-.9 0-1.667.313-2.293.929a3.057 3.057 0 0 0-.943 2.257v8.262c0 1.004-.373 1.89-1.12 2.646-.745.756-1.656 1.145-2.731 1.145h-1.81c-1.076 0-1.986-.367-2.732-1.102-.746-.734-1.108-1.63-1.12-2.689v-8.262c0-.886-.318-1.642-.943-2.257-.625-.616-1.393-.929-2.293-.929-.9 0-1.668.313-2.293.929a3.015 3.015 0 0 0-.922 1.933c-.01.108-.01.216-.01.324v8.262c0 1.004-.374 1.89-1.12 2.646-.746.756-1.656 1.145-2.732 1.145h-1.788c-1.075 0-1.986-.367-2.732-1.102-.746-.734-1.108-1.63-1.108-2.689v-8.262c0-.886-.318-1.642-.965-2.257-.637-.616-1.394-.929-2.271-.929-.9 0-1.668.313-2.293.929a3.057 3.057 0 0 0-.944 2.257v8.262c0 2.808 1.01 5.206 3.017 7.182 2.008 1.976 4.444 2.97 7.296 2.97h1.81c2.754 0 5.113-.918 7.077-2.765C50.764 31.071 53.123 32 55.877 32h1.81c2.852 0 5.288-.994 7.296-2.97C66.99 27.054 68 24.656 68 21.848v-8.262c0-.886-.318-1.642-.944-2.257-.625-.616-1.382-.929-2.293-.929z" fill="#E73929" fill-rule="nonzero"/>
</svg>
